<mxfile host="app.diagrams.net" modified="2020-11-09T05:06:15.059Z" agent="5.0 (Windows NT 6.1; Win64; x64) AppleWebKit/537.36 (KHTML, like Gecko) Chrome/76.0.3809.132 Safari/537.36" etag="sZ2WBNTKJxN8x3p_DGsO" version="13.9.1" type="github">
  <diagram id="3yUGhh3Qf99bzU9HY3Zw" name="Page-1">
    <mxGraphModel dx="818" dy="714" grid="1" gridSize="10" guides="1" tooltips="1" connect="1" arrows="1" fold="1" page="1" pageScale="1" pageWidth="827" pageHeight="1169" math="0" shadow="0">
      <root>
        <mxCell id="0" />
        <mxCell id="1" parent="0" />
        <mxCell id="ptatD6tmW2Q0XYceNz-m-7" style="edgeStyle=orthogonalEdgeStyle;rounded=0;orthogonalLoop=1;jettySize=auto;html=1;exitX=0;exitY=0.5;exitDx=0;exitDy=0;entryX=0.5;entryY=0;entryDx=0;entryDy=0;" edge="1" parent="1" source="ptatD6tmW2Q0XYceNz-m-1" target="ptatD6tmW2Q0XYceNz-m-2">
          <mxGeometry relative="1" as="geometry" />
        </mxCell>
        <mxCell id="ptatD6tmW2Q0XYceNz-m-10" style="edgeStyle=orthogonalEdgeStyle;rounded=0;orthogonalLoop=1;jettySize=auto;html=1;exitX=1;exitY=0.5;exitDx=0;exitDy=0;entryX=0;entryY=0.5;entryDx=0;entryDy=0;" edge="1" parent="1" source="ptatD6tmW2Q0XYceNz-m-1" target="ptatD6tmW2Q0XYceNz-m-4">
          <mxGeometry relative="1" as="geometry" />
        </mxCell>
        <mxCell id="ptatD6tmW2Q0XYceNz-m-1" value="StartUI" style="ellipse;whiteSpace=wrap;html=1;aspect=fixed;" vertex="1" parent="1">
          <mxGeometry x="360" y="80" width="80" height="80" as="geometry" />
        </mxCell>
        <mxCell id="ptatD6tmW2Q0XYceNz-m-2" value="Item" style="ellipse;whiteSpace=wrap;html=1;aspect=fixed;" vertex="1" parent="1">
          <mxGeometry x="200" y="240" width="80" height="80" as="geometry" />
        </mxCell>
        <mxCell id="ptatD6tmW2Q0XYceNz-m-9" style="edgeStyle=orthogonalEdgeStyle;rounded=0;orthogonalLoop=1;jettySize=auto;html=1;exitX=0;exitY=0.5;exitDx=0;exitDy=0;" edge="1" parent="1" source="ptatD6tmW2Q0XYceNz-m-3" target="ptatD6tmW2Q0XYceNz-m-2">
          <mxGeometry relative="1" as="geometry" />
        </mxCell>
        <mxCell id="ptatD6tmW2Q0XYceNz-m-3" value="Tracker" style="ellipse;whiteSpace=wrap;html=1;aspect=fixed;" vertex="1" parent="1">
          <mxGeometry x="360" y="240" width="80" height="80" as="geometry" />
        </mxCell>
        <mxCell id="ptatD6tmW2Q0XYceNz-m-4" value="Scanner" style="ellipse;whiteSpace=wrap;html=1;aspect=fixed;" vertex="1" parent="1">
          <mxGeometry x="560" y="80" width="80" height="80" as="geometry" />
        </mxCell>
        <mxCell id="ptatD6tmW2Q0XYceNz-m-5" value="" style="endArrow=classic;html=1;exitX=0.5;exitY=1;exitDx=0;exitDy=0;entryX=0.5;entryY=0;entryDx=0;entryDy=0;" edge="1" parent="1" source="ptatD6tmW2Q0XYceNz-m-1" target="ptatD6tmW2Q0XYceNz-m-3">
          <mxGeometry width="50" height="50" relative="1" as="geometry">
            <mxPoint x="390" y="440" as="sourcePoint" />
            <mxPoint x="440" y="390" as="targetPoint" />
          </mxGeometry>
        </mxCell>
      </root>
    </mxGraphModel>
  </diagram>
</mxfile>
